<svg id="Layer_1" data-name="Layer 1" xmlns="http://www.w3.org/2000/svg" viewBox="0 0 1024 1024"><defs><style>.cls-1,.cls-2,.cls-3,.cls-4{fill:none;stroke:#fff;stroke-linecap:round;stroke-linejoin:round;}.cls-1{stroke-width:17.07px;}.cls-2{stroke-width:18px;}.cls-3{stroke-width:12.58px;}.cls-4{stroke-width:10.24px;}</style></defs><rect x="-15.86" y="-16.7" width="1067.67" height="1067.67"/><path class="cls-1" d="M246.68,484.26l-73.46-.86a53.76,53.76,0,0,0-27.34,12,54.57,54.57,0,0,0-18.36,32.57q-1.08,50.77-2.14,101.55c8.27,25.9,21.65,42,29.9,50.4,16.05,16.33,32.7,23.78,52.11,32.46a263.42,263.42,0,0,0,54.24,17.52"/><path class="cls-1" d="M253.09,535.09l-76-.43c-1.55,19.19-1.71,35.35-1.49,47.41.56,30.71,3.77,42.8,5.44,48.37a126.66,126.66,0,0,0,10.15,24.24l70.9,26.91"/><path class="cls-2" d="M298.45,504.87l.84,281.84a333.59,333.59,0,0,0,63.35,46.46C438,875.71,509.37,876.93,540,877.09c34.74.18,105.78-.34,179.07-43.08a310.73,310.73,0,0,0,60-45.61q1.48-143.71,3-287.42"/><path class="cls-1" d="M352.16,419.5a136.14,136.14,0,0,0-32.71,10c-10.65,4.81-32.08,14.49-31.39,24.35.61,8.73,18.38,14.23,26.91,16.66,86.89,24.72,241.54,23.25,264,23.06,47.53-.4,72,.09,109.56-7.05,35.75-6.78,98.69-23.35,98-40.36-.32-8.05-14.78-13.92-24.51-17.14"/><path class="cls-1" d="M359.18,481.43q32.67-121.1,65.35-242.18l301.12,83.29q-21.78,82.65-43.57,165.29"/><path class="cls-1" d="M734,322.32l49.55-22q-23.92,85.95-47.84,171.91"/><path class="cls-1" d="M460.08,242.13l12.5-33,311,91.2"/><path class="cls-1" d="M813.61,374.8c29-8.59,48.33-14.36,64.28-19.17,13.7-4.13,24.69-7.48,39.33-5.54,8.33,1.1,23.38,3.08,32.67,15.37,9.79,13,11.21,34.71.29,44.64-9.66,8.79-25.42,7.79-29.76,6.63-.29-.08-2.52-.69-5.44-1.61,0,0-4-1.26-7.93-2.77-4.62-1.75-17.8-8.06-34.68-18.24"/><path class="cls-1" d="M367.35,244.63A325.35,325.35,0,0,0,301.06,135.7c-6.39-6.14-14.92-8.55-21.95-6-12,4.36-12.65,20.63-12.7,22.65-.29,11,6.13,18.93,12.74,27a86.93,86.93,0,0,0,28,22.46"/><path class="cls-1" d="M314.51,376.38c-14.22-27.28-32.53-42.17-42.86-49.29-13-9-42.81-29.51-65.66-18-13.51,6.82-17.92,21.47-18.33,22.91-4.12,14.44,1.54,28.67,8.32,36.49,14,16.17,44.76,18.71,72.8,1.8"/><rect class="cls-3" x="468.59" y="331.61" width="179.43" height="69.63" transform="translate(117.89 -135.58) rotate(15.46)"/><line class="cls-4" x1="518.07" y1="344.32" x2="603.28" y2="367.38"/><line class="cls-4" x1="511.34" y1="363.54" x2="563.57" y2="377.26"/></svg>