<svg width="285" height="159" viewBox="0 0 285 159" fill="none" xmlns="http://www.w3.org/2000/svg">
<path d="M164.255 0H120.176C115.777 0 111.865 2.77899 110.459 6.89403L96.8296 46.7262C95.5496 50.4672 92.1783 53.1393 88.2121 53.5668L9.15834 61.9928C3.94818 62.5451 0 66.8917 0 72.0756V86.8969C0 92.0807 3.94818 96.4274 9.15834 96.9796L88.2121 105.406C92.1783 105.833 95.5496 108.487 96.8296 112.246L110.459 152.078C111.865 156.193 115.777 158.972 120.176 158.972H164.255C168.654 158.972 172.566 156.193 173.972 152.078L185.258 119.105C187.512 112.531 182.554 105.726 175.541 105.726H105.339C99.6781 105.726 95.0809 101.184 95.0809 95.5901V63.418C95.0809 57.8244 99.6781 53.2818 105.339 53.2818H175.541C182.554 53.2818 187.512 46.4768 185.258 39.9034L173.972 6.92966C172.566 2.81462 168.654 0.0356281 164.255 0.0356281V0Z" fill="#ECFBD3"/>
<path d="M284.06 86.881V72.0598C284.06 66.8759 280.112 62.5293 274.902 61.977L200.337 54.032C194.28 53.3906 188.979 58.0757 188.979 64.1147V94.8261C188.979 100.847 194.28 105.55 200.337 104.909L274.902 96.9638C280.112 96.4116 284.06 92.0649 284.06 86.881Z" fill="#ECFBD3"/>
</svg>
