<svg width="38" height="26" viewBox="0 0 38 26" fill="none" xmlns="http://www.w3.org/2000/svg">
<path d="M33.8752 6.36339L33.875 6.36333C33.7192 6.28886 33.5426 6.2818 33.3824 6.34293C33.2215 6.40431 33.0854 6.53155 33.0092 6.70252C32.9328 6.87394 32.9251 7.07112 32.9884 7.24901C33.0515 7.42633 33.178 7.56509 33.3343 7.63994C33.3345 7.64002 33.3347 7.6401 33.3348 7.64017L33.1193 8.09133C33.7962 8.41293 34.2459 8.72492 34.5102 8.99612L33.8752 6.36339ZM33.8752 6.36339C34.6505 6.73352 35.3063 7.15484 35.7794 7.63388C36.2504 8.11084 36.5902 8.70694 36.5902 9.40171C36.5902 10.1341 36.2142 10.7518 35.7001 11.2473L35.7001 11.2473C35.1847 11.7441 34.4697 12.1788 33.6177 12.5595C31.9148 13.3204 29.5368 13.9353 26.7538 14.3397C26.5889 14.3599 26.4206 14.3132 26.2844 14.2052C26.1465 14.0959 26.0517 13.9314 26.0262 13.7447C26.0007 13.5578 26.0476 13.3698 26.1532 13.2217C26.2576 13.0754 26.4095 12.9814 26.5737 12.9533C29.3001 12.5562 31.5529 11.9646 33.1057 11.2668C33.8868 10.9184 34.4533 10.5592 34.8164 10.2118L34.8192 10.2091C35.1798 9.85871 35.2721 9.58873 35.2721 9.40171C35.2721 9.22222 35.187 8.96892 34.8666 8.64544L33.8752 6.36339ZM3.21507 6.36339L3.21521 6.36333C3.37108 6.28886 3.54763 6.2818 3.70788 6.34293C3.78766 6.37337 3.86199 6.4202 3.92623 6.48163C3.9905 6.54309 4.04339 6.61798 4.08107 6.70252C4.15748 6.87394 4.16518 7.07112 4.10187 7.24901C4.04307 7.41419 3.92928 7.54591 3.7876 7.62368L3.75289 7.64029C3.05256 7.97531 2.54482 8.3169 2.22276 8.64162L2.22275 8.64161L2.2197 8.64474C1.90151 8.97122 1.81814 9.22405 1.81814 9.40171C1.81814 9.67279 2.02525 10.123 2.87 10.6747L2.87022 10.6749C3.67107 11.1973 4.87411 11.6916 6.41791 12.118C9.49533 12.9683 13.7844 13.5016 18.5451 13.5017L18.5487 13.5016L19.2233 13.4968L20.3905 13.4885L19.5792 12.6493L16.9251 9.90392C16.8629 9.83953 16.8126 9.76215 16.7781 9.67577C16.7435 9.58937 16.7255 9.49619 16.7255 9.40171C16.7255 9.30723 16.7435 9.21405 16.7781 9.12765C16.8126 9.04127 16.8629 8.96389 16.9251 8.89949C16.9872 8.83514 17.0601 8.78504 17.139 8.7512C17.2179 8.71738 17.3018 8.70021 17.3861 8.70021C17.4703 8.70021 17.5542 8.71738 17.6331 8.7512C17.712 8.78504 17.7849 8.83514 17.847 8.89949L22.4833 13.6994L22.4838 13.6999C22.546 13.7641 22.5963 13.8414 22.6309 13.9277C22.6655 14.0141 22.6835 14.1072 22.6835 14.2016C22.6835 14.2961 22.6655 14.3892 22.6309 14.4755C22.5963 14.5618 22.546 14.6391 22.4838 14.7034L22.4833 14.7038L17.847 19.5038C17.7849 19.5681 17.712 19.6182 17.6331 19.652C17.5542 19.6859 17.4703 19.703 17.3861 19.703C17.2166 19.703 17.0504 19.6335 16.9251 19.5038C16.8629 19.4394 16.8126 19.362 16.7781 19.2756C16.7435 19.1892 16.7255 19.096 16.7255 19.0015C16.7255 18.9071 16.7435 18.8139 16.7781 18.7275C16.8126 18.6411 16.8629 18.5637 16.9251 18.4993L19.5863 15.7442L20.4212 14.8798L19.2196 14.8969C18.9963 14.9 18.7715 14.9016 18.5451 14.9016C13.7042 14.9016 9.3002 14.3598 6.08605 13.4725L6.08525 13.4722C4.4827 13.0326 3.14037 12.4928 2.18153 11.8656L2.18065 11.865C1.25718 11.2638 0.5 10.4488 0.5 9.40171C0.5 8.71086 0.838289 8.11697 1.31162 7.63069C1.78493 7.1541 2.44061 6.7331 3.21507 6.36339Z" fill="#2C2C2D" stroke="#2C2C2D"/>
<path d="M9.27246 17.8008V22.9435C9.40636 24.5525 9.81723 24.8315 11.5906 25.0007H27.8176C29.5914 24.9614 30.0681 24.4948 30.1357 22.9435V17.8008" stroke="#2C2C2D" stroke-width="2" stroke-linecap="round"/>
<path d="M30.1362 8.2002V3.05743C30.0023 1.44849 29.5915 1.16947 27.8181 1.00032L11.5911 1.00032C9.81732 1.0396 9.34061 1.50617 9.27296 3.05743V8.2002" stroke="#2C2C2D" stroke-width="2" stroke-linecap="round"/>
</svg>
