<svg id="Layer_1" data-name="Layer 1" xmlns="http://www.w3.org/2000/svg" viewBox="0 0 342.53 387.18"><defs><style>.cls-1{fill:#1d1d1b;}</style></defs><path class="cls-1" d="M235,348.7c-1.87,5.55-5,6.51-10.42,4.71-12-4-23.77-8.12-34.63-14.77-5.57-3.4-11.72-5.86-17.68-8.58-1.18-.53-2.71-.32-4.08-.45l-1,1.07c2.79,3.6,5.12,7.71,8.47,10.68,5.18,4.59,11.12,8.34,16.63,12.58,4.74,3.65,9.27,7.56,14,11.25,3.67,2.88,7.45,5.63,11.2,8.41,3.06,2.27,6.36,4.28,9.13,6.86,1.17,1.1,1.23,3.38,1.79,5.12-1.78.16-4.06,1.11-5.26.35-7.35-4.63-14.52-9.55-21.62-14.57-7.8-5.51-15.47-11.21-23.55-17.09-3.22,9.31-10.49,11.33-18.41,12.09-7.51.72-15.06,1.85-22.55,1.58a111.21,111.21,0,0,1-22.86-3.32c-4.88-1.22-9.32-4.28-13.9-6.64-3.59-1.85-7.22-3.68-10.62-5.86-11-7.09-18.27-17.18-22.41-29.53-2.38-7.07-4.62-14.18-6.6-20.27-1.56,2.48-3.18,6.56-6.07,9.31-5.17,4.93-12.12,5-17.74,1.73a89.31,89.31,0,0,1-18-14.46c-3.56-3.59-5.68-8.62-8.29-13.1a6.49,6.49,0,0,1-1-4c.26-1.47,1.43-2.79,2.21-4.18,1.19.81,2.7,1.37,3.51,2.45,5.64,7.64,11.26,15.32,19.35,20.59a22.75,22.75,0,0,0,8,3.25c6,1.17,9.35-2.52,8.13-8.49-.36-1.77-1.11-3.87-.51-5.34a7.78,7.78,0,0,1,4.21-4.26c1.18-.35,3.18,1.48,4.57,2.63.77.64,1,1.9,2,3.89.47-4.57.88-8.09,1.2-11.61.29-3.22,1.13-6.54,5-6.15,3.54.36,3.65,3.28,3.66,6.69,0,13.16,1,26.17,7.4,38.25,3.25,6.12,5.68,12.91,10.87,17.5A73.81,73.81,0,0,0,106,348.26c9.54,4.58,19.58,8.77,30.44,7.91,9.68-.76,19.26-2.8,28.88-4.26,2.72-.42,5.45-.78,8.42-1.2-.51-.42-1.35-1.06-2.13-1.76-5.62-5-11.79-9.71-12.09-18.2-.37-10.17,6.71-14.46,15.88-9.77a3.58,3.58,0,0,0,1.57.4c.35-4.84-.34-10,1.32-14.18a10.73,10.73,0,0,1,11.52-7c.72-4.17,1.38-8,2.16-12.49.55.59.23.13.14.17-3.7,1.67-29.76,4.2-29.76,4.2-6.45,1.64-17.05.28-38.27-2.43a221.35,221.35,0,0,1-27.88-6c-6.92-1.89-13.44-5-18.23-10.84-6.22-7.61-6-16.3-2.49-24.32,5.29-12.06,14.55-20.1,28-22.81,4.85-1,9.31-4,14.17-4.83,4.33-.77,9-.07,13.43.37.89.09,2.51,2.41,2.27,2.84a7.78,7.78,0,0,1-3.58,3.55c-5,1.79-10.16,3.16-15.28,4.66-3.43,1-6.9,1.93-10.34,2.95a26.51,26.51,0,0,0-7.65,3.3,111.64,111.64,0,0,1,47.09-.23c-6.13-15,2.57-25.21,8.49-36a58.62,58.62,0,0,1,8.44-11.64c1.08-1.15,4.08-.52,6.21-.7,0,1.73.49,3.76-.22,5.14-4,7.85-8.64,15.42-12.47,23.36-1.66,3.44-1.94,7.55-2.85,11.35l1.54.77c2.87-2,5.69-4.06,8.61-6,4.86-3.2,11.65-.69,13,4.83,1,4.26,1.78,8.57,2.75,13.3,6,1.09,12.38,1.56,18.25,3.5,5.63,1.85,10.75,5.23,16.47,7.46-1.33-6.2-4.09-11-9.73-14-7.63-4.12-15.16-8.44-22.47-13.08-1.3-.82-2.32-4.06-1.71-5.36.77-1.64,3.42-3.49,5.12-3.36a24.39,24.39,0,0,1,10.23,2.94c7.43,4.37,15,8.82,21.58,14.3,4.93,4.09,8.63,9.31,8.22,17-.55,10-5.64,17.72-10.78,25.47-1.31,2-4.45,2.73-6.78,4-2.89,1.58-5.82,3.1-8.72,4.92,12.06-4.13,22.48.7,33.11,5.32,13.61,5.9,27.55,11,41.11,17,4.92,2.18,9.28,5.72,13.66,9s1.14,6.79-1,8.73c-1.31,1.22-5.33.54-7.6-.48-6.08-2.73-11.6-6.92-17.85-9-8.8-3-16.72-7.4-24.87-11.62a244.77,244.77,0,0,0-26.57-11.28c-2-.77-4.9.32-7.29.92a2.9,2.9,0,0,0-1.33,2.54c.56,1.6,1.41,3.89,2.68,4.31a71.21,71.21,0,0,1,22.35,12.05c6,4.78,13.5,7.56,20.1,11.62a19.12,19.12,0,0,1,6.79,6.73c.76,1.41-.66,4.57-2,6.29-.7.93-3.62,1.18-4.87.5-4.13-2.24-8-5-11.88-7.63-8-5.3-16.14-10.52-24.1-15.94-5.73-3.89-12.38-4.1-18.84-5-.78-.1-2.81,2.24-2.61,3,.66,2.76,1.38,6.13,3.32,7.85,5.57,5,11.4,9.83,17.81,13.56,5.17,3,11.33,4.26,17,6.34C228.22,342.82,232.93,343.68,235,348.7Z"/><path class="cls-1" d="M272.3,49.81H280c.08,1.59-.2,2.8.23,3.63,5.93,11.34,5.12,22.17-2.06,32.71a10.86,10.86,0,0,0-1.58,5.26c-.72,12.59-.79,25.24-2.12,37.76-.57,5.34,1.95,6.48,5.62,8.06,9.33,4,15.69,16.49,15,26.74-.89,14.08-9.25,22.57-20.61,28.48-4,2.07-9.35,1.47-15.26,2.24-1.62,3.63-4,8.55-6,13.59-2.52,6.1-4.45,12.49-7.43,18.35-.8,1.59-4.5,2.51-6.78,2.36-2.61-.18-2.95-2.67-2.06-5.09,3.67-9.93,7.35-19.86,10.87-29.83.83-2.34,1-4.91,1.57-7.34,1.31-5.38,4.86-6.91,9.61-4.22,4.6,2.62,14.57,0,18.13-5.35s6.12-11,5.19-17.95c-1-7.7-5.44-11.87-13.31-11.94a13.58,13.58,0,0,1-5.73-1.39c-4.09-2-4.62-5.19-1.87-8.94a6.39,6.39,0,0,0,1.47-2.72C264,124,265.1,113.69,266,103.41c.23-2.7-.27-5.45-.41-7.93-54.75,15.56-109.51,13.11-164.68-4-.75,10-1.53,20.34-2.3,30.64-.33,4.47-.44,9-1.06,13.41-.72,5.22-1.65,5.59-6.44,4-2.07-.69-4.3-.9-6.39-1.55-10.25-3.16-14.82,4.95-14,12.86.85,8.29,8.65,16,18.34,13.69,4.5-1,7.22,1.66,7.54,6a102,102,0,0,0,2.62,14.42c.64,2.91,1.69,5.72,2.51,8.59,1.23,4.3,2.65,8.56,3.55,12.93.63,3,1.81,6.69-4.13,8.51-2.42-5.42-5.23-10.74-7.17-16.37s-3-11.79-4.63-17.66c-.82-3-2.45-4.68-6.12-4.56-6.08.19-11.65-1.42-16-6.33-1.72-2-4-3.34-7.12-1.59-2.12,1.21-5.43,1-6.9,2.58-5.81,6.37-7.76,14.39-8,22.82-.19,8.19,1.35,15.93,6.16,22.87,4.6,6.65,9.57,12.63,17.45,15.74a18.44,18.44,0,0,1,7.21,5.47c2,2.5.17,4.94-2.52,4.84a22.8,22.8,0,0,1-10-2.51c-4.66-2.64-8.53-6.67-13.18-9.36-17.29-10-17.74-25.54-14.64-42.53,1.15-6.31,2.53-12.24,6.46-17.66,4.34-6,10.34-9.16,16.6-12-2.34-10-1.72-19.23,5.73-26.74,6.78-6.82,15.17-8.24,24.08-5.72,0-7.14-.07-14.15,0-21.16a23.3,23.3,0,0,1,.84-6.89C92.64,88.78,88,81,84.68,72.85a11.08,11.08,0,0,1-.7-5.19c.48-4.49,1.11-9,2-13.38,1.36-6.54,4.51-9,11.1-8.9,1.58,0,3.15.17,4.2.23,4.59-5.82,8.52-11.9,13.51-16.91a85.93,85.93,0,0,1,32.49-21c9.11-3.24,18.28-5.5,27.68-5.77a146.77,146.77,0,0,1,29.44,2.25,98.5,98.5,0,0,1,24,7.64c6.32,2.92,11.82,7.69,17.5,11.89A109,109,0,0,1,258.76,34.3C263.68,39.25,268,44.81,272.3,49.81Zm-161,.49c49.7,14.26,98.8,16.29,148.58,4.43-22.54-30.95-53.33-44.19-90.51-40.3C145.67,16.91,125.55,28.18,111.33,50.3Zm60.39,22.85c.87,5.64,1.76,10.59,2.35,15.57.34,2.91,1.33,4.44,4.57,4.41,3.43,0,6.87.54,10.31.75,3,.18,5.12-.89,4.59-4.24-.77-4.85-1.79-9.66-2.94-14.43-.14-.56-1.79-1-2.77-1.08C182.69,73.74,177.54,73.49,171.72,73.15Zm-6.23-.59c-3.08-.33-6.15-.45-9.13-1-6.45-1.23-7.43-.31-6.13,5.93.41,2,.14,4.14.59,6.12.59,2.64,1.09,7.07,2.5,7.44,5.19,1.36,10.74,1.37,16,1.87C167.92,85.44,166.69,78.92,165.49,72.56ZM144.43,89.89c-.37-6.14-.6-11.94-1.15-17.71-.13-1.31-1.18-3.41-2.13-3.61-3.87-.8-7.85-1-12.47-1.5.68,7.24,1.33,14.06,2,20.87Zm52.91-14.77c.93,6.51,1.78,12.44,2.61,18.28l15.4-1.11-3.07-17.17Zm22-1.53c1.34,6.73,2.42,12.14,3.65,18.34l16.77-2.79c-2.39-6.06-3.07-12.26-6.52-15.09C230.53,71.78,224.41,73.59,219.39,73.59ZM124.47,86.17V65.67c-3.08-1.21-5.57-2-7.89-3.16-2.79-1.37-4.15-.83-4.17,2.42,0,4.78.31,9.62-.35,14.31-.5,3.59,1.68,4.34,3.87,5.07A75.46,75.46,0,0,0,124.47,86.17ZM240.68,72.36c1.37,3.12,2.83,5.88,3.8,8.79,2.6,7.8,2.51,7.83,10.7,4.41a6.87,6.87,0,0,0,1.68-.81c5.07-4.06-2.28-6.77-1.29-10.67.31-1.22-2.15-3.14-3.39-4.71-.09-.1-.58.13-.88.2ZM106.41,81.07c0-5.16-.42-10.41.1-15.57.71-7.15-.14-8.66-7.86-10.12-.79,5.15-2.32,10.31-2.17,15.42C96.66,77.36,99.64,79.71,106.41,81.07Zm165.4-16.48c-2.9.66-5.56,1-7.94,2-.86.36-1.6,2.47-1.4,3.59.59,3.17,1.7,6.24,2.6,9.34C273.4,77.66,270.87,70.62,271.81,64.59Z"/><path class="cls-1" d="M218.13,278.5c1.89-.68,3.77-1.93,5.66-1.93a148.76,148.76,0,0,0,42.91-6.7,112,112,0,0,0,29.17-13.71c7.73-5,14.31-11.35,16.37-21.3,1.2-5.81-1.35-10.31-4.47-13.71-5.91-6.46-14.31-9.09-22.7-11.27-3.46-.9-7.12-1.66-10.13-3.44a8.35,8.35,0,0,1-3.55-6.09c0-1.3,3.1-3.6,5-3.77a31.25,31.25,0,0,1,10.23,1.13c8.49,2.11,17,4.82,23.72,10.49,7.79,6.54,15.71,14.06,13.76,25.39-1.72,9.94-6.6,19-15.12,25.19-9.28,6.73-19,13-30.05,16.2-10.27,3-21.13,3.89-31.52,6.5a55.25,55.25,0,0,1-24.22.91,31.72,31.72,0,0,1-4.94-1.77Z"/><path class="cls-1" d="M307.61,355.74c2.07-4,3.49-8.55,6.36-11.84,6.91-7.93,12.94-16.54,13.79-26.95.82-10.1.48-20.34-3.56-30.35-2.6-6.45-7-11.12-10.68-16.52-1.35-1.95-2.35-5.5-1.46-7.31,1.44-2.9,4.47-1.53,6.89,0,9.16,5.66,14.76,13.7,17.54,24.15,3.57,13.39,5.33,26.7.48,40.08-3.65,10.09-9.27,19-17.64,25.82-2.72,2.2-6.71,2.81-10.11,4.15Z"/><path class="cls-1" d="M2.25,249.56c3.34-2.2,6.29-4.4,9.46-6.19C16,241,20.29,237.9,25,236.77c9.65-2.33,19.77-2.57,28.62,2.41,4.73,2.67,8.24,7.66,12,11.89a17.75,17.75,0,0,1,4,7c2.07,8.27,1.3,10.31-5.77,14.7-2,1.23-4.83,1.25-7.31,1.51-9.07.94-17.24-1.36-23.89-7.72-1.25-1.2-2.31-4.41-1.61-5.43,1.12-1.64,3.69-2.57,5.82-3.2,4.34-1.29,7.38,1.29,10.59,3.83,3.89,3.08,8.33,2.56,12.91.65-2.48-3.5-4.71-6.85-7.15-10-6.08-8-15-8.12-23.48-7.1-5.91.72-11.77,3.28-17.22,5.9C8,253.34,6.07,253.79,2.25,249.56Z"/><path class="cls-1" d="M182.67,164c1.18,2.23,3.12,4.6,3.67,7.27.46,2.21-8.13,9.11-11.21,9.58-4.3.66-8.62,1.33-12.95,1.72-3,.27-13.87-9.66-15.32-12.31-4-7.37-2.57-14.58,1.31-20.83,6.2-10,18.5-16.65,30.69-9.77,1.76,1,3.1,2.71,4.2,3.7-2.05,6.67-6.4,3.68-9.84,3.55-11-.39-16.52,5.6-17.64,15.53-.45,3.95,6.45,9.1,10.82,8.4,3.49-.55,7-.52,9.44-4.24C176.76,165.21,179.7,165.08,182.67,164Z"/><path class="cls-1" d="M273.87,230.88c-2.85-1.17-5.8-2.13-8.52-3.56a18.92,18.92,0,0,1-5.89-4.32c-2.23-2.76-.17-5,2.25-6,7.08-3,21.72,5.34,23.12,12.86S281,241.65,276,245a110.76,110.76,0,0,1-35.73,15.77,42.32,42.32,0,0,1-10.25.85c-1,0-2.07-1.46-4.11-3,5.29-2.31,9.48-3.95,13.5-5.94,9.64-4.75,19.26-9.57,28.75-14.6,2.35-1.24,4.22-3.4,6.31-5.14C274.29,232.23,274.08,231.55,273.87,230.88Z"/><path class="cls-1" d="M61.68,202c1-8,2-15.93,6-23.26,2-3.57,4.31-2.09,6.22-1.19,1,.44,1.31,3.06,1.21,4.64-.39,5.93-1,11.84-1.68,17.74-.81,7,3,12.25,6.54,17.57,1.81,2.73,2.17,6.73,6.52,7.56.54.1,1.12,4.48.61,4.74-1.92,1-4.69,2-6.42,1.31-11.09-4.55-16.89-13.47-19.27-24.9a8.87,8.87,0,0,1-.12-2.36A12.28,12.28,0,0,1,61.68,202Z"/><path class="cls-1" d="M16.35,310.53c4.72,3.59,8.26,6.59,12.1,9.13,9.86,6.51,19.7,6.2,29.61-.53,2-1.36,3.63-1.34,4.62,1.5,2.25,6.43-1.47,10.83-8.56,12.47-5.9,1.36-11.61,2.48-17.39.9-9.54-2.61-17.25-8-21.73-17.06C14.42,315.76,15.62,313.71,16.35,310.53Z"/><path class="cls-1" d="M144,125.09c.33,6.83-6.61,13.4-12.21,13.63-5.9.24-13.2-7.39-13.19-12.61,0-5.67,7.3-13.07,12.81-13C138.24,113.14,144.05,118.68,144,125.09Z"/><path class="cls-1" d="M203.35,131.89c0-7.14,4.1-11,11.62-11,6.27,0,12.2,5.29,12.08,11.35-.12,5.78-6.34,12.4-10.82,12.36C208.2,144.47,203.35,139.7,203.35,131.89Z"/><path class="cls-1" d="M64.25,336.36c1.78,11.14-4,17.61-13.46,19-9.13,1.34-16.23-1.94-22.56-7.68a6.18,6.18,0,0,1-1.15-5.57c.92-2.22,2.8-2.91,5.81-1.4A43.11,43.11,0,0,0,47,345c2.58.31,5.55-1.83,8.18-3.18C58.1,340.32,60.82,338.45,64.25,336.36Z"/><path class="cls-1" d="M276.85,165.62c.31,5.07-1.29,10-7,13-3.16,1.68-4.57-.75-6-2.31-.57-.63.05-3.34,1-4.16,3.07-2.75,2.75-6.17,2.59-9.61-.14-2.81-1.73-6.46,2.5-7.17,4-.66,6.83,2.82,7,7.42C276.87,163.45,276.85,164.08,276.85,165.62Z"/><path class="cls-1" d="M82.43,141.13a3.89,3.89,0,0,1,3.36.91,4,4,0,0,1,.62,3.62c-.5,2.43-2.1,2.53-2.78,4.46-1.23,3.48,2.75,6.7,1.48,8.3-.75.94-2.86.73-4.21,0-2.83-1.54-3-5.73-3-8.54-.07-2.37-.16-5.52,2-7.47A5.87,5.87,0,0,1,82.43,141.13Z"/><path class="cls-1" d="M127.5,144.75a19.32,19.32,0,0,1-11-2.85c-1.51-1-4.68-3-4.67-5.82,0-.15,0-2,1.22-2.66s2.69.12,3.53.56c2,1.05,1.91,2,3.9,3.53a14.41,14.41,0,0,0,6,2.88c1.26.24,2.39.25,3.07,1.16a2,2,0,0,1-2,3.2Z"/><path class="cls-1" d="M215.14,151.73a2.48,2.48,0,0,1-.24-2.66c.49-.83,1.48-.83,3.15-1.24a15.26,15.26,0,0,0,6.32-2.85c1.7-1.45,1.91-2.76,3.13-2.78a2.4,2.4,0,0,1,2.07,1.42,3.16,3.16,0,0,1-.35,2.67,8.1,8.1,0,0,1-3.55,3.46C223,151.22,216.94,153.85,215.14,151.73Z"/></svg>